<svg xmlns="http://www.w3.org/2000/svg" viewBox="0 0 50 50"><g transform="matrix(1,0,0,1,0,0)"><defs><style>.a{fill:#ffe500}.b{fill:none;stroke:#45413c;stroke-linecap:round;stroke-linejoin:round;stroke-width:1.25px}.c{fill:#f2c100}</style></defs><path class="a" d="M29.8 9.1c3.7-4.3 10.4-6.7 12.4-5.9s1.5 9.8-1 16.4"></path><path class="b" d="M29.8 9.1c3.7-4.3 10.4-6.7 12.4-5.9s1.5 9.8-1 16.4"></path><path class="c" d="M31.5 10.4c2.7-3.1 7.5-4.9 9-4.3s1.1 7.1-.7 11.9"></path><path class="b" d="M31.5 10.4c2.7-3.1 7.5-4.9 9-4.3s1.1 7.1-.7 11.9"></path><path class="a" d="M20 9.1C16.3 4.8 9.6 2.4 7.6 3.2s-1.5 9.8 1 16.4"></path><path class="b" d="M20 9.1C16.3 4.8 9.6 2.4 7.6 3.2s-1.5 9.8 1 16.4"></path><path class="c" d="M18.3 10.4c-2.7-3.1-7.5-4.9-9-4.3S8.2 13.2 10 18"></path><path class="b" d="M18.3 10.4c-2.7-3.1-7.5-4.9-9-4.3S8.2 13.2 10 18"></path><path class="a" d="M42.8 24.5v-.6c0-9.9-8-17.3-17.8-17.3S7.2 14.1 7.2 23.9v.6A8.554 8.554 0 0 0 4 31c0 7.5 9.4 16 20.9 16s20.9-8.5 20.9-16a7.409 7.409 0 0 0-3-6.5z"></path><path class="c" d="M25 43C14.4 43 5.7 35.8 4.3 28.9A7.613 7.613 0 0 0 4 31c0 7.5 9.4 16 20.9 16s20.9-8.5 20.9-16a12.252 12.252 0 0 0-.2-1.9C44.2 36 35.5 43 25 43z"></path><path class="b" d="M42.8 24.5v-.6c0-9.9-8-17.3-17.8-17.3S7.2 14.1 7.2 23.9v.6A8.554 8.554 0 0 0 4 31c0 7.5 9.4 16 20.9 16s20.9-8.5 20.9-16a7.409 7.409 0 0 0-3-6.5z"></path><path d="M16.8 32h15.5a1.188 1.188 0 0 1 1.2 1c.3 2-.2 6.5-8.9 6.5-8.8 0-9.2-4.5-8.9-6.5a1.028 1.028 0 0 1 1.1-1z" style="fill:#ff6242;stroke:#45413c;stroke-linecap:round;stroke-linejoin:round;stroke-width:1.25px"></path><path d="M33.3 35.3a6.522 6.522 0 0 0 .2-2.4 1.188 1.188 0 0 0-1.2-1H16.8a1.188 1.188 0 0 0-1.2 1 6.522 6.522 0 0 0 .2 2.4 36.631 36.631 0 0 1 8.7-.8 51.429 51.429 0 0 1 8.8.8z" style="fill:#fff;stroke:#45413c;stroke-linecap:round;stroke-linejoin:round;stroke-width:1.25px"></path><path d="M27.7 27.1c0 1.1-1.4 2.4-3.2 2.4s-3.2-1.3-3.2-2.4 1.4-1.6 3.2-1.6 3.2.5 3.2 1.6z" style="fill:#bf8256;stroke:#45413c;stroke-linecap:round;stroke-linejoin:round;stroke-width:1.25px"></path><path class="b" d="M36 28a16.918 16.918 0 0 1 5.5 0M36 30.5a9.715 9.715 0 0 1 5.5 1.5m-28-4A16.918 16.918 0 0 0 8 28m5.5 2.5A9.715 9.715 0 0 0 8 32"></path><path d="M25 11.5c3.3 0 6-.9 6-2s-2.7-2-6-2-6 .9-6 2 2.7 2 6 2z" style="fill:#fffacf"></path><path class="b" d="M28.5 22.5s0-2.5 2-2.5 2 2.5 2 2.5m-16 0s0-2.5 2-2.5 2 2.5 2 2.5"></path></g></svg>