<svg xmlns="http://www.w3.org/2000/svg" viewBox="0 0 50 50"><g transform="matrix(1,0,0,1,0,0)"><defs><style>.c,.d{fill:none;stroke:#45413c;stroke-linecap:round;stroke-linejoin:round;stroke-width:1.25px}.d{fill:#525252}.e{fill:#656769}</style></defs><path d="M48.5 21.319C48.5 33.507 36 48.5 25 48.5S1.5 33.507 1.5 21.319C1.5 9.994 10.9 1.5 25 1.5s23.5 8.494 23.5 19.819z" style="fill:#9ceb60"></path><path d="M25 6.6c13.024 0 22.02 7.255 23.32 17.286a19.439 19.439 0 0 0 .18-2.563C48.5 9.994 39.1 1.5 25 1.5S1.5 9.994 1.5 21.319a19.439 19.439 0 0 0 .18 2.563C2.98 13.851 11.976 6.6 25 6.6z" style="fill:#c8ffa1"></path><path class="c" d="M48.5 21.319C48.5 33.507 36 48.5 25 48.5S1.5 33.507 1.5 21.319C1.5 9.994 10.9 1.5 25 1.5s23.5 8.494 23.5 19.819z"></path><path class="d" d="M42.63 22.523c1.084-2.67-.5-5.563-4.3-5.725S29.3 18.736 28.218 21.4s2.382 5.736 6.182 5.8 7.146-2.007 8.23-4.677z"></path><path class="e" d="M36.925 19.336c2.942.241 4.924 1.947 5.331 3.877a9.055 9.055 0 0 1-7.856 3.974c-3.452-.057-6.607-2.587-6.358-5.049a12.5 12.5 0 0 1 8.883-2.802z"></path><path class="c" d="M42.63 22.523c1.084-2.67-.5-5.563-4.3-5.725S29.3 18.736 28.218 21.4s2.382 5.736 6.182 5.8 7.146-2.007 8.23-4.677z"></path><path class="d" d="M7.37 22.523c-1.084-2.67.5-5.563 4.3-5.725s9.024 1.938 10.108 4.6-2.377 5.738-6.183 5.8-7.141-2.005-8.225-4.675z"></path><path class="e" d="M13.075 19.336c-2.942.241-4.924 1.947-5.331 3.877a9.055 9.055 0 0 0 7.856 3.974c3.452-.057 6.607-2.587 6.358-5.049a12.5 12.5 0 0 0-8.883-2.802z"></path><path class="c" d="M7.37 22.523c-1.084-2.67.5-5.563 4.3-5.725s9.024 1.938 10.108 4.6-2.377 5.738-6.183 5.8-7.141-2.005-8.225-4.675zm14.005 10.352c0 4.111 7.25 4.141 7.25 0"></path></g></svg>