<svg xmlns="http://www.w3.org/2000/svg" viewBox="0 0 50 50"><g transform="matrix(1,0,0,1,0,0)"><defs><style>.f{fill:#45413c}</style></defs><ellipse cx="25" cy="25" rx="23.5" ry="21.5" style="fill:#ffe500"></ellipse><path d="M25 42.5C11.7 42.5 2.594 33.933 1.6 23c-.06.659-.1 1.325-.1 2 0 11.874 9.4 21.5 23.5 21.5S48.5 36.874 48.5 25c0-.676-.039-1.342-.1-2-.994 10.933-10.1 19.5-23.4 19.5z" style="fill:#f2c100"></path><ellipse cx="25" cy="6.002" rx="6.5" ry="1.001" style="fill:#fffacf"></ellipse><ellipse cx="25" cy="25" rx="23.5" ry="21.5" style="stroke-miterlimit:10;stroke:#45413c;stroke-width:1.25px;fill:none"></ellipse><path d="M17.267 28.785a1 1 0 0 1 1.491-.957c1.092.623 2.982 1.2 6.242 1.2 3.223 0 5.106-.558 6.2-1.171a1 1 0 0 1 1.482.983c-.316 2.879-1.795 7.16-7.765 7.16-6.006 0-7.393-4.332-7.65-7.215z" style="stroke-linecap:round;stroke-linejoin:round;fill:#ff6242;stroke:#45413c;stroke-width:1.25px"></path><circle class="f" cx="33.348" cy="16.342" r="1.75"></circle><circle class="f" cx="16.652" cy="16.342" r="1.75"></circle><path d="M25 29.025a17.664 17.664 0 0 1-4.3-.451l.709 3.549a1.4 1.4 0 0 0 1.375 1.127h4.43a1.4 1.4 0 0 0 1.375-1.127l.709-3.547a17.78 17.78 0 0 1-4.298.449z" style="fill:#fff;stroke-linecap:round;stroke-linejoin:round;stroke:#45413c;stroke-width:1.25px"></path><path d="M35.633 23.622c-3.019 0-6.766-.623-7.81-1.667-.728-.729-1.24-3.52-1.521-8.3H23.7c-.281 4.78-.793 7.571-1.521 8.3-1.044 1.044-4.791 1.667-7.81 1.667-1.269 0-3.568-.113-4.708-.873-1.424-.949-2.196-3.718-2.361-8.464l-2.327.069v-3.078a1 1 0 0 1 1-1h1.479a17.627 17.627 0 0 1 7.779-1.715 21.492 21.492 0 0 1 8.344 1.715h2.85a21.492 21.492 0 0 1 8.344-1.715 17.628 17.628 0 0 1 7.78 1.715h1.478a1 1 0 0 1 1 1v3H42.7c-.164 4.75-.936 7.522-2.359 8.471-1.141.762-3.441.875-4.708.875zm-.77-11.836c-3.268 0-5.269.807-5.269 1.247 0 2.017 0 5.773.71 6.447.75.712 2.741 1.171 5.074 1.171a9.111 9.111 0 0 0 3.321-.467c.871-.413 1.435-3.221 1.435-7.151 0-.44-2.001-1.247-5.271-1.247zm-19.554 0c-3.269 0-5.27.807-5.27 1.247 0 3.93.564 6.738 1.435 7.151a9.111 9.111 0 0 0 3.321.467c2.332 0 4.324-.459 5.074-1.171.71-.674.71-4.43.71-6.447 0-.44-2.001-1.247-5.27-1.247z" style="fill:#656769;stroke-linecap:round;stroke-linejoin:round;stroke:#45413c;stroke-width:1.25px"></path><path style="stroke-linecap:round;stroke-linejoin:round;stroke:#45413c;stroke-width:1.25px;fill:none" d="M25 33.25v-4.225"></path></g></svg>